<svg width="57" height="56" viewBox="0 0 57 56" fill="none" xmlns="http://www.w3.org/2000/svg">
<rect x="4.5" y="4" width="48" height="48" rx="24" fill="white"/>
<rect x="4.5" y="4" width="48" height="48" rx="24" stroke="#F5EDFF" stroke-width="8"/>
<g clip-path="url(#clip0_170_531)">
<path d="M35.5289 22.2231C35.5289 22.3447 35.4806 22.4614 35.3946 22.5474C35.3085 22.6335 35.1919 22.6818 35.0702 22.6818C32.5432 22.6818 30.3724 21.1289 29.461 18.9274C28.5496 21.1289 26.3788 22.6818 23.8518 22.6818C23.5984 22.6818 23.3931 22.4764 23.3931 22.2231C23.3931 21.9697 23.5984 21.7644 23.8518 21.7644C26.6918 21.7644 29.0023 19.4538 29.0023 16.6139C29.0023 16.3605 29.2076 16.1552 29.461 16.1552C29.7143 16.1552 29.9198 16.3605 29.9198 16.6139C29.9198 19.4538 32.2302 21.7644 35.0702 21.7644C35.1919 21.7644 35.3085 21.8127 35.3946 21.8987C35.4806 21.9847 35.5289 22.1014 35.5289 22.2231Z" fill="#2B3B47"/>
<path d="M17.5591 26.6581C17.5591 23.5186 20.1042 20.9735 23.2437 20.9735C26.3832 20.9735 28.9282 23.5186 28.9282 26.6581M41.4405 26.6581C41.4405 23.5186 38.8954 20.9735 35.7559 20.9735C32.6164 20.9735 30.0713 23.5186 30.0713 26.6581" fill="#FFB636"/>
<path d="M19.2617 26.6581C19.2617 23.5186 22.6414 20.9735 23.2437 20.9735C23.846 20.9735 21.443 23.5186 21.443 26.6581M33.9552 26.6581C33.9552 23.5186 36.3583 20.9735 35.756 20.9735C35.1536 20.9735 31.774 23.5186 31.774 26.6581" fill="#FFD469"/>
<path d="M23.2437 27.7306C20.1042 27.7306 17.5591 27.3133 17.5591 26.7987C17.5591 26.284 20.1042 25.8668 23.2437 25.8668C26.3832 25.8668 28.9282 26.2841 28.9282 26.7987C28.9282 27.3133 26.3832 27.7306 23.2437 27.7306ZM41.4405 26.7987C41.4405 26.284 38.8954 25.8668 35.7559 25.8668C32.6164 25.8668 30.0713 26.2841 30.0713 26.7987C30.0713 27.3134 32.6164 27.7306 35.7559 27.7306C38.8954 27.7306 41.4405 27.3133 41.4405 26.7987Z" fill="#A06C33"/>
<path d="M30.4842 31.5939C30.4842 31.9566 30.1902 32.2507 29.8275 32.2507C29.4648 32.2507 29.1707 31.9566 29.1707 31.5939C29.1707 31.2312 29.4648 30.9371 29.8275 30.9371C30.1902 30.9371 30.4842 31.2312 30.4842 31.5939ZM33.5283 37.9464C33.2082 37.9464 32.9487 38.2059 32.9487 38.526C32.9487 38.846 33.2082 39.1055 33.5283 39.1055C33.8483 39.1055 34.1078 38.846 34.1078 38.526C34.1078 38.2059 33.8483 37.9464 33.5283 37.9464ZM20.809 34.9697C20.4889 34.9697 20.2295 35.2292 20.2295 35.5492C20.2295 35.8693 20.4889 36.1287 20.809 36.1287C21.1291 36.1287 21.3885 35.8693 21.3885 35.5492C21.3885 35.2292 21.1291 34.9697 20.809 34.9697Z" fill="#FFB636"/>
<path d="M24.6107 38.2916C24.6107 38.7106 24.271 39.0503 23.852 39.0503C23.433 39.0503 23.0933 38.7106 23.0933 38.2916C23.0933 37.8726 23.433 37.5329 23.852 37.5329C24.271 37.5328 24.6107 37.8725 24.6107 38.2916ZM36.4427 27.1899C36.1657 26.9059 35.7767 26.7145 35.3476 26.6511C35.0972 26.614 34.8632 26.7873 34.8261 27.0383C34.789 27.2892 34.9623 27.5226 35.2133 27.5597C35.4414 27.5934 35.6499 27.6924 35.7854 27.8313C35.8461 27.8935 35.9447 28.0194 35.9235 28.1631C35.9023 28.3068 35.7714 28.3987 35.6953 28.4407C35.5254 28.5345 35.2972 28.5688 35.0691 28.5352C34.1368 28.3975 33.2856 28.9116 33.1717 29.6815C33.0579 30.4514 33.7238 31.1899 34.6562 31.3278C34.6611 31.3285 34.6659 31.3283 34.6707 31.3288C35.1232 31.4012 35.4004 31.7013 35.3667 31.9296C35.3454 32.0733 35.2146 32.1652 35.1384 32.2072C34.9685 32.301 34.7404 32.3355 34.5122 32.3017C33.58 32.164 32.7287 32.6781 32.6148 33.448C32.501 34.2179 33.167 34.9564 34.0994 35.0943C34.1221 35.0976 34.1447 35.0992 34.1671 35.0992C34.391 35.0992 34.5871 34.9353 34.6208 34.7071C34.6579 34.4562 34.4846 34.2228 34.2337 34.1857C33.7726 34.1175 33.4893 33.813 33.5234 33.5823C33.5575 33.3516 33.9167 33.1418 34.3779 33.2103C34.4806 33.2254 34.5833 33.2329 34.6848 33.2329C35.0072 33.2329 35.3179 33.1572 35.5822 33.0114C35.9649 32.8002 36.2175 32.4549 36.2753 32.0639C36.3891 31.294 35.7231 30.5555 34.7907 30.4176C34.7846 30.4167 34.7785 30.4165 34.7724 30.4158C34.3223 30.3424 34.0466 30.0434 34.0802 29.8158C34.1143 29.5851 34.4736 29.3754 34.9347 29.4438C35.0374 29.4589 35.1401 29.4664 35.2416 29.4664C35.5641 29.4664 35.8747 29.3907 36.1389 29.2449C36.5216 29.0337 36.7742 28.6884 36.832 28.2974C36.8898 27.9064 36.7479 27.5028 36.4427 27.1899Z" fill="#BEA4FF"/>
<path d="M31.0155 36.308C31.0155 36.727 30.6758 37.0667 30.2568 37.0667C29.8377 37.0667 29.498 36.727 29.498 36.308C29.498 35.889 29.8377 35.5493 30.2568 35.5493C30.6758 35.5492 31.0155 35.8889 31.0155 36.308ZM23.152 28.6024C22.8571 28.3156 22.4495 28.1279 22.0043 28.074C21.9981 28.0732 21.9919 28.0732 21.9858 28.0727C21.5848 28.0173 21.3131 27.7622 21.337 27.5657C21.3719 27.2771 21.1663 27.0147 20.8777 26.9798C20.5894 26.9451 20.3268 27.1504 20.2918 27.439C20.1921 28.2621 20.8886 29.0007 21.8775 29.1206C21.883 29.1213 21.8884 29.1211 21.8939 29.1216C22.1021 29.1499 22.2925 29.235 22.4179 29.357C22.4713 29.409 22.5588 29.5134 22.5449 29.629C22.5309 29.7444 22.4209 29.8249 22.3567 29.8626C22.2017 29.9534 21.9898 29.9907 21.7752 29.9646C21.3299 29.9106 20.8893 29.9955 20.5345 30.2036C20.1393 30.4354 19.8838 30.8054 19.8337 31.2187C19.734 32.0419 20.4304 32.7805 21.4193 32.9004C21.4408 32.903 21.4622 32.9043 21.4833 32.9043C21.7458 32.9043 21.9729 32.7082 22.0052 32.4412C22.0402 32.1526 21.8346 31.8903 21.546 31.8553C21.1348 31.8055 20.8546 31.545 20.8788 31.3454C20.8928 31.2299 21.0027 31.1494 21.067 31.1118C21.222 31.0209 21.4339 30.9836 21.6485 31.0097C21.736 31.0204 21.8233 31.0256 21.9098 31.0256C22.2636 31.0256 22.6041 30.9379 22.8892 30.7707C23.2845 30.5389 23.5398 30.1689 23.59 29.7556C23.6401 29.3422 23.4805 28.9219 23.152 28.6024ZM38.7668 39.3508C39.0099 39.1915 39.0777 38.8652 38.9183 38.622C37.1542 35.9321 38.5067 34.0359 39.3147 32.903C39.413 32.7653 39.5058 32.6351 39.5815 32.5184C39.7398 32.2745 39.6703 31.9485 39.4264 31.7903C39.1825 31.6321 38.8565 31.7016 38.6983 31.9455C38.6352 32.0427 38.5529 32.1581 38.4576 32.2917C37.6206 33.4653 35.8788 35.9072 38.0379 39.1994C38.0858 39.2725 38.1512 39.3326 38.2281 39.3741C38.3051 39.4156 38.3912 39.4373 38.4786 39.4371C38.581 39.4372 38.6812 39.4072 38.7668 39.3508Z" fill="#FF6E83"/>
<path d="M28.4986 29.4054C28.4986 29.6957 28.2633 29.931 27.973 29.931C27.6827 29.931 27.4474 29.6957 27.4474 29.4054C27.4474 29.1151 27.6827 28.8798 27.973 28.8798C28.2633 28.8798 28.4986 29.1151 28.4986 29.4054ZM39.7041 28.521C39.4223 28.521 39.1939 28.7495 39.1939 29.0312C39.1939 29.313 39.4223 29.5415 39.7041 29.5415C39.9859 29.5415 40.2143 29.313 40.2143 29.0312C40.2143 28.7495 39.9859 28.521 39.7041 28.521ZM25.0718 36.2338C25.1511 36.1479 25.2462 36.0515 25.3469 35.9494C25.8577 35.4313 26.5573 34.7217 26.86 33.7513C27.2236 32.5855 26.9114 31.3466 25.9319 30.0689C25.7618 29.8471 25.4443 29.8053 25.2226 29.9752C25.0008 30.1453 24.9589 30.4628 25.1288 30.6846C25.9074 31.7001 26.1578 32.6047 25.8941 33.4499C25.6644 34.186 25.0888 34.7699 24.6263 35.239C24.5198 35.3472 24.4191 35.4493 24.3286 35.5472C24.139 35.7524 24.1517 36.0725 24.357 36.2621C24.4503 36.3486 24.5729 36.3965 24.7001 36.3964C24.77 36.3965 24.8391 36.3821 24.9031 36.3541C24.967 36.3261 25.0245 36.2851 25.0718 36.2338Z" fill="#59CAFC"/>
</g>
<defs>
<clipPath id="clip0_170_531">
<rect width="24" height="24" fill="white" transform="translate(17.5 16)"/>
</clipPath>
</defs>
</svg>
