<svg width="25" height="24" viewBox="0 0 25 24" fill="none" xmlns="http://www.w3.org/2000/svg">
<path d="M8.8 9.99981C8.67109 10.0068 8.54274 9.97809 8.42916 9.91673C8.31557 9.85537 8.22116 9.76379 8.15637 9.65212C8.09159 9.54046 8.05894 9.41304 8.06205 9.28398C8.06517 9.15492 8.10391 9.02922 8.174 8.92081L11.9 2.99981C11.9585 2.89437 12.0433 2.80586 12.1462 2.74284C12.249 2.67981 12.3663 2.64442 12.4869 2.6401C12.6074 2.63577 12.727 2.66266 12.834 2.71815C12.9411 2.77363 13.032 2.85584 13.098 2.95681L16.8 8.89981C16.873 9.0046 16.9159 9.12735 16.9241 9.25478C16.9323 9.38221 16.9055 9.50946 16.8466 9.62276C16.7877 9.73605 16.6989 9.83107 16.5899 9.89753C16.4808 9.96399 16.3557 9.99936 16.228 9.99981H8.8Z" stroke="#667085" stroke-width="2" stroke-linecap="round" stroke-linejoin="round"/>
<path d="M9.5 14H4.5C3.94772 14 3.5 14.4477 3.5 15V20C3.5 20.5523 3.94772 21 4.5 21H9.5C10.0523 21 10.5 20.5523 10.5 20V15C10.5 14.4477 10.0523 14 9.5 14Z" stroke="#667085" stroke-width="2" stroke-linecap="round" stroke-linejoin="round"/>
<path d="M18 21C19.933 21 21.5 19.433 21.5 17.5C21.5 15.567 19.933 14 18 14C16.067 14 14.5 15.567 14.5 17.5C14.5 19.433 16.067 21 18 21Z" stroke="#667085" stroke-width="2" stroke-linecap="round" stroke-linejoin="round"/>
</svg>
