<svg width="22" height="22" viewBox="0 0 22 22" fill="none" xmlns="http://www.w3.org/2000/svg">
<path d="M17.193 3.1582H4.91228C3.94336 3.1582 3.1579 3.94367 3.1579 4.91259V17.1933C3.1579 18.1622 3.94336 18.9477 4.91228 18.9477H17.193C18.1619 18.9477 18.9474 18.1622 18.9474 17.1933V4.91259C18.9474 3.94367 18.1619 3.1582 17.193 3.1582Z" stroke="#667085" stroke-width="2.10526" stroke-linecap="round" stroke-linejoin="round"/>
<path d="M8.42101 10.1748C9.38993 10.1748 10.1754 9.38932 10.1754 8.4204C10.1754 7.45148 9.38993 6.66602 8.42101 6.66602C7.45209 6.66602 6.66663 7.45148 6.66663 8.4204C6.66663 9.38932 7.45209 10.1748 8.42101 10.1748Z" stroke="#667085" stroke-width="2.10526" stroke-linecap="round" stroke-linejoin="round"/>
<path d="M18.9474 13.6845L16.2404 10.9775C15.9114 10.6486 15.4652 10.4639 15 10.4639C14.5348 10.4639 14.0887 10.6486 13.7597 10.9775L5.78949 18.9477" stroke="#667085" stroke-width="2.10526" stroke-linecap="round" stroke-linejoin="round"/>
</svg>
