<svg width="29" height="28" viewBox="0 0 29 28" fill="none" xmlns="http://www.w3.org/2000/svg">
<g clip-path="url(#clip0_209_1074)">
<path d="M10.2541 0.920933C7.45642 1.89146 5.04374 3.73355 3.37041 6.17663C1.69707 8.6197 0.851282 11.535 0.957268 14.4943C1.06325 17.4536 2.11543 20.3009 3.95925 22.618C5.80307 24.9351 8.34134 26.5999 11.2012 27.3678C13.5198 27.9661 15.949 27.9924 18.28 27.4444C20.3916 26.9701 22.3439 25.9555 23.9456 24.5C25.6127 22.9389 26.8227 20.9529 27.4456 18.7556C28.1227 16.3661 28.2432 13.8533 27.7978 11.41H14.7778V16.8109H22.3181C22.1674 17.6723 21.8445 18.4945 21.3686 19.2282C20.8928 19.9619 20.2738 20.592 19.5487 21.0809C18.628 21.69 17.59 22.0998 16.5016 22.2841C15.4099 22.4871 14.2901 22.4871 13.1984 22.2841C12.092 22.0553 11.0453 21.5986 10.125 20.9431C8.64656 19.8966 7.53647 18.4098 6.95311 16.695C6.3599 14.948 6.3599 13.0541 6.95311 11.3072C7.36836 10.0827 8.05481 8.96773 8.96124 8.04562C9.99853 6.971 11.3118 6.20286 12.7569 5.82548C14.202 5.44809 15.7231 5.47603 17.1534 5.90625C18.2707 6.24923 19.2925 6.84848 20.1372 7.65625C20.9874 6.81041 21.8361 5.96239 22.6834 5.11218C23.1209 4.655 23.5978 4.21968 24.0287 3.75156C22.7393 2.55166 21.2259 1.618 19.575 1.00406C16.5687 -0.0875264 13.2793 -0.116862 10.2541 0.920933Z" fill="#1D2939"/>
<path d="M10.2541 0.920944C13.2791 -0.117557 16.5685 -0.0889937 19.575 1.00188C21.2262 1.61999 22.739 2.55815 24.0266 3.76251C23.5891 4.23063 23.1275 4.66813 22.6813 5.12313C21.8325 5.97042 20.9845 6.8148 20.1372 7.65626C19.2925 6.84849 18.2708 6.24924 17.1534 5.90626C15.7236 5.47453 14.2025 5.44497 12.7571 5.82082C11.3116 6.19666 9.9975 6.96339 8.95907 8.03688C8.05265 8.95899 7.36619 10.0739 6.95095 11.2984L2.41626 7.78751C4.0394 4.56873 6.84977 2.10662 10.2541 0.920944Z" fill="#E33629"/>
<path d="M1.21311 11.2656C1.45684 10.0577 1.86149 8.88786 2.41623 7.78749L6.95092 11.3072C6.3577 13.0541 6.3577 14.948 6.95092 16.695C5.44009 17.8617 3.92852 19.0342 2.41623 20.2125C1.0275 17.4482 0.60396 14.2986 1.21311 11.2656Z" fill="#F8BD00"/>
<path d="M14.7778 11.4078H27.7978C28.2432 13.8511 28.1227 16.364 27.4456 18.7534C26.8227 20.9507 25.6127 22.9367 23.9456 24.4978C22.4822 23.3559 21.0122 22.2228 19.5488 21.0809C20.2743 20.5916 20.8936 19.9607 21.3694 19.2262C21.8453 18.4918 22.168 17.6688 22.3181 16.8066H14.7778C14.7756 15.0084 14.7778 13.2081 14.7778 11.4078Z" fill="#587DBD"/>
<path d="M2.41406 20.2125C3.92635 19.0458 5.43792 17.8733 6.94875 16.695C7.53327 18.4104 8.64495 19.8973 10.125 20.9431C11.0481 21.5956 12.0971 22.0485 13.205 22.2731C14.2967 22.4761 15.4164 22.4761 16.5081 22.2731C17.5966 22.0889 18.6346 21.6791 19.5553 21.07C21.0187 22.2119 22.4888 23.345 23.9522 24.4869C22.3507 25.9432 20.3984 26.9585 18.2866 27.4334C15.9556 27.9814 13.5264 27.9552 11.2078 27.3569C9.37404 26.8673 7.66116 26.0041 6.17656 24.8216C4.6052 23.574 3.32178 22.0018 2.41406 20.2125Z" fill="#319F43"/>
</g>
<defs>
<clipPath id="clip0_209_1074">
<rect width="28" height="28" fill="white" transform="translate(0.5)"/>
</clipPath>
</defs>
</svg>
