<svg width="245" height="45" viewBox="0 0 245 45" fill="none" xmlns="http://www.w3.org/2000/svg">
<g clip-path="url(#clip0_36_45)">
<mask id="mask0_36_45" style="mask-type:luminance" maskUnits="userSpaceOnUse" x="0" y="0" width="45" height="45">
<path d="M44.5949 0H0V44.5949H44.5949V0Z" fill="white"/>
</mask>
<g mask="url(#mask0_36_45)">
<path d="M31.5575 34.8507C29.2332 36.5676 26.4782 37.6055 23.5987 37.8493C20.7194 38.0927 17.829 37.5322 15.2495 36.2298C12.67 34.9276 10.5026 32.9349 8.9887 30.4737C7.47482 28.0123 6.67393 25.1792 6.67521 22.2895C6.6765 19.3999 7.4799 16.5674 8.99597 14.1074C10.512 11.6475 12.6812 9.65669 15.2619 8.35677C17.8426 7.05685 20.7335 6.49884 23.6125 6.74491C26.4918 6.99096 29.246 8.03143 31.5687 9.75043L35.8922 4.62201C32.5921 2.08358 28.6475 0.519722 24.5046 0.107512C20.3618 -0.304698 16.1863 0.451202 12.4509 2.28963C8.71547 4.12806 5.56936 6.97558 3.36878 10.5098C1.16821 14.044 0.00106575 18.1237 -0.000509573 22.287C-0.00208489 26.4503 1.16198 30.5308 3.35988 34.0667C5.55777 37.6026 8.70171 40.4525 12.4357 42.2938C16.1698 44.1349 20.3447 44.8941 24.4879 44.485C28.631 44.0758 32.577 42.515 35.8788 39.9791L31.5575 34.8507Z" fill="black"/>
<path d="M33.0917 33.5555L37.4129 38.6839C39.677 36.5966 41.4842 34.0632 42.7206 31.243C43.957 28.4228 44.5958 25.377 44.5967 22.2977C44.5978 19.2184 43.961 16.1722 42.7266 13.3512C41.492 10.5301 39.6866 7.99535 37.4241 5.90659L33.0983 11.035C34.6206 12.4889 35.8325 14.2363 36.6604 16.1717C37.488 18.1071 37.915 20.1902 37.915 22.2952C37.915 24.4003 37.488 26.4834 36.6604 28.4188C35.8325 30.3542 34.6206 32.1017 33.0983 33.5555H33.0917Z" fill="#6A0DAD"/>
</g>
</g>
<path d="M52.1761 37.8611V6.19869H61.4518V18.2839H70.1478V6.19869H79.4236V37.8611H70.1478V25.5975H61.4518V37.8611H52.1761Z" fill="#6A0DAD"/>
<path d="M94.1266 38.3962C86.1442 38.3962 80.882 33.4908 80.882 26.0434C80.882 18.5961 86.1442 13.6906 94.1266 13.6906C102.065 13.6906 107.327 18.5961 107.327 26.0434C107.327 33.4908 102.065 38.3962 94.1266 38.3962ZM90.2469 26.0434C90.2469 29.834 91.6293 31.93 94.1266 31.93C96.624 31.93 97.9618 29.834 97.9618 26.0434C97.9618 22.2529 96.624 20.1569 94.1266 20.1569C91.6293 20.1569 90.2469 22.2529 90.2469 26.0434Z" fill="#6A0DAD"/>
<path d="M121.206 38.3962C113.223 38.3962 107.961 33.4908 107.961 26.0434C107.961 18.5961 113.223 13.6906 121.206 13.6906C129.144 13.6906 134.406 18.5961 134.406 26.0434C134.406 33.4908 129.144 38.3962 121.206 38.3962ZM117.326 26.0434C117.326 29.834 118.709 31.93 121.206 31.93C123.703 31.93 125.041 29.834 125.041 26.0434C125.041 22.2529 123.703 20.1569 121.206 20.1569C118.709 20.1569 117.326 22.2529 117.326 26.0434Z" fill="#6A0DAD"/>
<path d="M161.039 6.19869V37.8611H152.076L151.942 34.4273C150.604 36.9692 148.196 38.3962 145.03 38.3962C138.742 38.3962 135.04 33.4016 135.04 26.0434C135.04 18.6853 138.742 13.6906 145.03 13.6906C147.973 13.6906 150.381 15.0731 151.853 17.6596V6.19869H161.039ZM144.361 26.0434C144.361 29.3881 145.922 31.9746 148.33 31.9746C150.872 31.9746 152.254 29.3881 152.254 26.0434C152.254 22.565 150.827 20.0677 148.33 20.0677C145.743 20.0677 144.361 22.5204 144.361 26.0434Z" fill="#6A0DAD"/>
<path d="M162.845 37.8611V6.19869H172.12V18.2839H180.816V6.19869H190.092V37.8611H180.816V25.5975H172.12V37.8611H162.845Z" fill="#6A0DAD"/>
<path d="M216.532 37.8611H208.282L208.104 34.3827C206.766 37.3706 204.224 38.3962 201.236 38.3962C196.331 38.3962 192.986 35.3192 192.986 29.4327V14.2258H202.173V26.2218C202.173 29.5218 202.485 31.3948 204.625 31.3948C206.677 31.3948 207.346 29.5218 207.346 26.2218V14.2258H216.532V37.8611Z" fill="#6A0DAD"/>
<path d="M219.001 6.19869H228.188V17.6596C229.659 15.0731 232.067 13.6906 235.011 13.6906C241.299 13.6906 245 18.6853 245 26.0434C245 33.4016 241.299 38.3962 235.011 38.3962C231.844 38.3962 229.436 36.9692 228.099 34.4273L227.965 37.8611H219.001V6.19869ZM227.786 26.0434C227.786 29.3881 229.169 31.9746 231.711 31.9746C234.119 31.9746 235.68 29.3881 235.68 26.0434C235.68 22.5204 234.297 20.0677 231.711 20.0677C229.213 20.0677 227.786 22.565 227.786 26.0434Z" fill="#6A0DAD"/>
<defs>
<clipPath id="clip0_36_45">
<rect width="44.5949" height="44.5949" fill="white"/>
</clipPath>
</defs>
</svg>
