<svg width="24" height="25" viewBox="0 0 24 25" fill="none" xmlns="http://www.w3.org/2000/svg">
<path d="M20 13.1059C20 18.1059 16.5 20.6059 12.34 22.0559C12.1222 22.1297 11.8855 22.1262 11.67 22.0459C7.5 20.6059 4 18.1059 4 13.1059V6.10592C4 5.8407 4.10536 5.58635 4.29289 5.39881C4.48043 5.21128 4.73478 5.10592 5 5.10592C7 5.10592 9.5 3.90592 11.24 2.38592C11.4519 2.20492 11.7214 2.10547 12 2.10547C12.2786 2.10547 12.5481 2.20492 12.76 2.38592C14.51 3.91592 17 5.10592 19 5.10592C19.2652 5.10592 19.5196 5.21128 19.7071 5.39881C19.8946 5.58635 20 5.8407 20 6.10592V13.1059Z" stroke="#B42318" stroke-width="2" stroke-linecap="round" stroke-linejoin="round"/>
<path d="M12 8.10547V12.1055" stroke="#B42318" stroke-width="2" stroke-linecap="round" stroke-linejoin="round"/>
<path d="M12 16.1055H12.01" stroke="#B42318" stroke-width="2" stroke-linecap="round" stroke-linejoin="round"/>
</svg>
