<svg width="22" height="22" viewBox="0 0 22 22" fill="none" xmlns="http://www.w3.org/2000/svg">
<path d="M20.96 9.96979C21.013 10.7998 21.013 11.6598 20.96 12.4898C20.686 16.7328 17.354 20.1128 13.17 20.3898C11.7249 20.485 10.2751 20.485 8.83 20.3898C8.32001 20.355 7.81862 20.2406 7.344 20.0508C6.832 19.8408 6.576 19.7348 6.445 19.7508C6.315 19.7668 6.126 19.9058 5.749 20.1848C5.083 20.6748 4.244 21.0288 2.999 20.9978C2.37 20.9828 2.056 20.9748 1.915 20.7348C1.774 20.4948 1.949 20.1628 2.3 19.4978C2.787 18.5758 3.095 17.5198 2.628 16.6748C1.823 15.4668 1.14 14.0358 1.04 12.4908C0.987024 11.6516 0.987024 10.81 1.04 9.97079C1.314 5.72779 4.646 2.34879 8.83 2.07079C10.032 1.99079 10.281 1.97879 11.5 2.03379M10.995 11.4998H11.005M14.991 11.4998H15M7 11.4998H7.009" stroke="#667085" stroke-width="1.5" stroke-linecap="round" stroke-linejoin="round"/>
<path d="M21 4.5C21 5.42826 20.6313 6.3185 19.9749 6.97487C19.3185 7.63125 18.4283 8 17.5 8C16.5717 8 15.6815 7.63125 15.0251 6.97487C14.3687 6.3185 14 5.42826 14 4.5C14 3.57174 14.3687 2.6815 15.0251 2.02513C15.6815 1.36875 16.5717 1 17.5 1C18.4283 1 19.3185 1.36875 19.9749 2.02513C20.6313 2.6815 21 3.57174 21 4.5Z" stroke="#667085" stroke-width="1.5" stroke-linecap="round" stroke-linejoin="round"/>
</svg>
