<svg width="20" height="20" viewBox="0 0 20 20" fill="none" xmlns="http://www.w3.org/2000/svg">
<path d="M16.6667 9.87116C16.7189 9.96949 16.7783 10.0664 16.845 10.162C17.245 10.7253 17.7825 11.302 17.8917 11.9953C18.0692 13.1228 17.2767 13.9053 16.3067 14.2953C12.5875 15.7912 7.4125 15.7912 3.69333 14.2953C2.72333 13.9053 1.93083 13.1228 2.10833 11.9953C2.21667 11.302 2.75583 10.7253 3.155 10.162C3.6775 9.41449 3.72917 8.60033 3.73 7.73283C3.72917 4.38366 6.53583 1.66699 10 1.66699C10.4289 1.66755 10.8456 1.70783 11.25 1.78783" stroke="#344054" stroke-width="1.5" stroke-linecap="round" stroke-linejoin="round"/>
<path d="M15.8333 5.41732C15.8333 5.96985 15.6138 6.49976 15.2231 6.89046C14.8324 7.28116 14.3025 7.50065 13.75 7.50065C13.1975 7.50065 12.6676 7.28116 12.2769 6.89046C11.8861 6.49976 11.6667 5.96985 11.6667 5.41732C11.6667 4.86478 11.8861 4.33488 12.2769 3.94418C12.6676 3.55348 13.1975 3.33398 13.75 3.33398C14.3025 3.33398 14.8324 3.55348 15.2231 3.94418C15.6138 4.33488 15.8333 4.86478 15.8333 5.41732Z" stroke="#344054" stroke-width="1.5" stroke-linecap="round" stroke-linejoin="round"/>
<path d="M6.66667 17.5C6.99487 17.7524 7.47735 17.9628 8.06371 18.1094C8.65007 18.256 9.31879 18.3333 10 18.3333C10.6812 18.3333 11.3499 18.256 11.9363 18.1094C12.5227 17.9628 13.0051 17.7524 13.3333 17.5" stroke="#344054" stroke-width="1.5" stroke-linecap="round" stroke-linejoin="round"/>
</svg>
