<svg width="211" height="211" viewBox="0 0 211 211" fill="none" xmlns="http://www.w3.org/2000/svg">
<path d="M132.89 67.4195C132.89 76.6432 130.036 82.8929 124.309 86.1483L122.862 86.8717L107.309 94.6486L84.1189 106.244C89.846 102.988 92.6995 96.7385 92.6995 87.5148C92.6995 87.2736 92.6995 87.0526 92.6794 86.8114C92.6191 82.2096 91.8352 77.5274 90.3281 72.7649C88.9214 68.2233 86.8518 63.6014 84.1189 58.8992C81.8682 55.0208 79.4566 51.5845 76.8643 48.53C72.8251 43.7473 68.3642 39.9694 63.4811 37.136C56.1463 32.8959 49.7761 31.9514 44.3705 34.3227L83.0538 14.971C88.7609 11.7155 95.6535 12.3988 103.672 17.0408C111.71 21.6828 118.582 28.9372 124.309 38.8039C130.036 48.6707 132.89 58.2159 132.89 67.4195Z" fill="#BD8EF7" stroke="white" stroke-width="1.00476" stroke-linecap="round" stroke-linejoin="round"/>
<path d="M143.983 125.334C143.983 125.334 143.882 125.213 143.822 125.153V125.414M143.983 125.334C144.123 125.455 144.244 125.575 144.344 125.716L143.822 125.414M143.983 125.334L143.822 125.414L143.983 125.334Z" fill="#BD8EF7"/>
<path d="M143.983 125.334C143.983 125.334 143.882 125.213 143.822 125.153V125.414M143.983 125.334C144.123 125.455 144.244 125.575 144.344 125.716L143.822 125.414M143.983 125.334L143.822 125.414" stroke="white" stroke-width="1.00476" stroke-linecap="round" stroke-linejoin="round"/>
<path d="M121.918 181.5V188.192C121.918 192.814 120.491 195.929 117.617 197.556C114.764 199.184 111.328 198.842 107.309 196.531L19.6733 145.932C15.6543 143.601 12.2182 139.983 9.34458 135.04C6.49106 130.117 5.06403 125.334 5.06403 120.732V114.02C5.06403 109.278 6.12926 105.52 8.25936 102.767C9.38469 101.32 10.7109 100.235 12.2382 99.5518C13.5846 98.9289 15.0917 98.5872 16.7395 98.5671C24.2953 98.5872 31.9715 99.7729 39.7484 102.104C41.6574 102.687 43.5868 103.33 45.5159 104.033C51.444 106.223 57.4324 109.077 63.4811 112.553C71.5191 117.195 79.4363 122.842 87.2332 129.514C95.0101 136.165 102.687 143.842 110.223 152.543C111.388 153.889 112.473 155.316 113.458 156.783C115.548 159.797 117.296 163.053 118.723 166.549C120.853 171.754 121.918 176.738 121.918 181.5Z" fill="#BD8EF7" stroke="white" stroke-width="1.00476" stroke-linecap="round" stroke-linejoin="round"/>
<path d="M183.71 141.189C183.389 142.315 182.786 143.118 181.922 143.601L181.48 143.822L161.264 153.93L141.732 163.696C143.118 162.912 143.822 161.325 143.822 158.953V142.174L158.431 150.614C159.235 151.076 159.978 151.398 160.661 151.538C161.787 151.82 162.771 151.699 163.635 151.217L178.446 143.802H178.466L183.71 141.189Z" fill="#BD8EF7" stroke="white" stroke-width="1.00476" stroke-linecap="round" stroke-linejoin="round"/>
<path d="M184.012 88.5597V105.319L168.438 113.096L143.983 125.334C143.983 125.334 143.882 125.213 143.822 125.153V108.655C143.822 106.284 143.118 103.892 141.732 101.481C140.325 99.0695 138.597 97.261 136.527 96.0553C135.904 95.7136 135.342 95.4524 134.799 95.2515H134.779C133.634 94.8897 132.629 94.8897 131.745 95.2715L171.513 75.3773C172.9 74.5734 174.648 74.7744 176.717 75.96C178.787 77.1657 180.516 78.9743 181.922 81.3857C183.309 83.7972 184.012 86.1885 184.012 88.5597Z" fill="#BD8EF7" stroke="white" stroke-width="1.00476" stroke-linecap="round" stroke-linejoin="round"/>
<path d="M92.6995 87.5148C92.6995 96.7385 89.846 102.988 84.1189 106.244C78.3917 109.499 71.5191 108.816 63.4811 104.174C56.9099 100.396 51.102 94.8295 46.0782 87.5148C45.2543 86.3292 44.4507 85.0833 43.687 83.7972C43.4057 83.3551 43.1246 82.8929 42.8633 82.4307C37.1362 72.5438 34.2827 63.0187 34.2827 53.795C34.2827 44.5713 37.1362 38.3417 42.8633 35.0662L44.3705 34.3227C49.7761 31.9515 56.1463 32.8959 63.4811 37.136C68.3642 39.9695 72.8251 43.7474 76.8643 48.53C79.4566 51.5845 81.8682 55.0208 84.1189 58.8992C86.8518 63.6015 88.9214 68.2234 90.3281 72.7649C91.8352 77.5275 92.6191 82.2096 92.6794 86.8115C92.6995 87.0526 92.6995 87.2736 92.6995 87.5148Z" fill="#BD8EF7" stroke="white" stroke-width="1.00476" stroke-linecap="round" stroke-linejoin="round"/>
<path d="M129.514 97.9041C129.313 98.5672 129.212 99.3509 129.212 100.235V116.995L114.603 108.555C112.734 107.489 111.147 107.208 109.821 107.751L119.386 102.948L129.514 97.9041Z" fill="#BD8EF7" stroke="white" stroke-width="1.00476" stroke-linecap="round" stroke-linejoin="round"/>
<path d="M165.746 146.454C165.746 148.825 165.042 150.413 163.635 151.217C162.771 151.699 161.787 151.819 160.661 151.538C159.978 151.397 159.235 151.076 158.431 150.614L143.822 142.174V158.953C143.822 161.325 143.118 162.912 141.732 163.696C140.325 164.5 138.597 164.299 136.527 163.113C134.457 161.907 132.709 160.099 131.323 157.687C129.916 155.276 129.212 152.885 129.212 150.513V133.754L114.603 125.314C112.533 124.128 110.805 122.32 109.398 119.908C108.012 117.497 107.309 115.085 107.309 112.714C107.309 110.343 108.012 108.755 109.398 107.952L109.821 107.751C111.147 107.208 112.734 107.489 114.603 108.554L129.212 116.994V100.235C129.212 99.3508 129.313 98.5671 129.514 97.9039C129.835 96.7585 130.438 95.9547 131.323 95.4724L131.745 95.2715C132.629 94.8897 133.634 94.8897 134.779 95.2514H134.799C135.342 95.4523 135.904 95.7136 136.527 96.0552C138.597 97.2609 140.325 99.0695 141.732 101.481C143.118 103.892 143.822 106.284 143.822 108.655V125.414L144.344 125.716L158.431 133.854C160.501 135.04 162.229 136.849 163.635 139.26C165.042 141.691 165.746 144.083 165.746 146.454Z" fill="#BD8EF7" stroke="white" stroke-width="1.00476" stroke-linecap="round" stroke-linejoin="round"/>
<path d="M143.983 125.334L143.822 125.414L143.983 125.334Z" fill="#BD8EF7"/>
<path d="M143.983 125.334L143.822 125.414" stroke="white" stroke-width="1.00476" stroke-linecap="round" stroke-linejoin="round"/>
<path d="M205.936 126.359C205.936 128.73 205.233 130.318 203.826 131.121L183.71 141.169L178.466 143.801H178.446L163.635 151.217C165.042 150.413 165.746 148.825 165.746 146.454C165.746 144.083 165.042 141.691 163.635 139.26C162.229 136.849 160.501 135.04 158.431 133.854L144.344 125.716C144.244 125.575 144.123 125.455 143.983 125.334L168.438 113.096L184.012 105.319L198.622 113.759C200.691 114.945 202.419 116.753 203.826 119.165C205.233 121.596 205.936 123.988 205.936 126.359Z" fill="#BD8EF7" stroke="white" stroke-width="1.00476" stroke-linecap="round" stroke-linejoin="round"/>
<path d="M162.108 161.405V168.097C162.108 172.719 160.682 175.833 157.808 177.461L156.904 177.903L117.617 197.556C120.491 195.929 121.918 192.814 121.918 188.192V181.5C121.918 176.738 120.853 171.754 118.723 166.549C117.296 163.053 115.548 159.797 113.458 156.783C112.473 155.316 111.388 153.889 110.223 152.543C102.687 143.842 95.0101 136.165 87.2332 129.514C79.4363 122.842 71.5191 117.195 63.4811 112.553C57.4324 109.077 51.444 106.223 45.5159 104.033C43.5868 103.33 41.6574 102.687 39.7484 102.104C31.9715 99.7728 24.2953 98.5872 16.7395 98.5671C15.0917 98.5872 13.5846 98.9288 12.2382 99.5518L43.687 83.7971C44.4507 85.0832 45.2543 86.3291 46.0782 87.5147C51.102 94.8294 56.9099 100.396 63.4811 104.174C71.5191 108.816 78.3917 109.499 84.1189 106.243L107.309 94.6485C111.368 97.1404 115.387 99.9135 119.386 102.948L109.821 107.751L109.398 107.952C108.012 108.755 107.309 110.343 107.309 112.714C107.309 115.085 108.012 117.497 109.398 119.908C110.805 122.32 112.533 124.128 114.603 125.314L129.212 133.754V150.513C129.212 152.885 129.916 155.276 131.323 157.687C132.709 160.099 134.457 161.907 136.527 163.113C138.597 164.299 140.325 164.5 141.732 163.696L161.264 153.929C161.827 156.482 162.108 158.973 162.108 161.405Z" fill="#BD8EF7" stroke="white" stroke-width="1.00476" stroke-linecap="round" stroke-linejoin="round"/>
</svg>
