<svg width="22" height="22" viewBox="0 0 22 22" fill="none" xmlns="http://www.w3.org/2000/svg">
<path d="M16.4211 7.54441C16.4211 10.7137 13.0272 14.0611 11.6904 15.2593C11.5375 15.3761 11.3504 15.4394 11.1579 15.4394C10.9655 15.4394 10.7784 15.3761 10.6255 15.2593C9.28951 14.0611 5.89478 10.7137 5.89478 7.54441C5.89478 6.14853 6.44929 4.80983 7.43632 3.82279C8.42335 2.83576 9.76206 2.28125 11.1579 2.28125C12.5538 2.28125 13.8925 2.83576 14.8795 3.82279C15.8666 4.80983 16.4211 6.14853 16.4211 7.54441Z" stroke="#667085" stroke-width="2.10526" stroke-linecap="round" stroke-linejoin="round"/>
<path d="M11.1579 9.29783C12.1268 9.29783 12.9123 8.51237 12.9123 7.54345C12.9123 6.57453 12.1268 5.78906 11.1579 5.78906C10.189 5.78906 9.4035 6.57453 9.4035 7.54345C9.4035 8.51237 10.189 9.29783 11.1579 9.29783Z" stroke="#667085" stroke-width="2.10526" stroke-linecap="round" stroke-linejoin="round"/>
<path d="M8.27545 12.8076H5.02107C4.83715 12.8077 4.6579 12.8656 4.50867 12.9731C4.35945 13.0806 4.24779 13.2323 4.18949 13.4067L2.43159 18.6699C2.38752 18.8018 2.37542 18.9422 2.39629 19.0796C2.41716 19.2171 2.47039 19.3476 2.55161 19.4604C2.63283 19.5733 2.7397 19.6652 2.86342 19.7286C2.98713 19.792 3.12415 19.8251 3.26317 19.8252H19.0526C19.1916 19.8251 19.3285 19.792 19.4521 19.7286C19.5757 19.6652 19.6825 19.5734 19.7637 19.4607C19.8449 19.348 19.8982 19.2176 19.9191 19.0802C19.9401 18.9429 19.9281 18.8026 19.8842 18.6708L18.1298 13.4076C18.0716 13.2329 17.9599 13.0809 17.8105 12.9732C17.6611 12.8655 17.4816 12.8076 17.2974 12.8076H14.0412" stroke="#667085" stroke-width="2.10526" stroke-linecap="round" stroke-linejoin="round"/>
</svg>
